<svg width="28" height="28" viewBox="0 0 28 28" fill="none" xmlns="http://www.w3.org/2000/svg">
<path d="M26.4443 13.5162C26.4443 12.429 26.3543 11.6357 26.1595 10.813H13.4919V15.7198H20.9275C20.7777 16.9393 19.9681 18.7757 18.1692 20.0097L18.1439 20.174L22.1492 23.2147L22.4267 23.2419C24.9751 20.9353 26.4443 17.5416 26.4443 13.5162Z" fill="#4285F4"/>
<path d="M13.4919 26.4446C17.1347 26.4446 20.1929 25.2692 22.4266 23.2418L18.1691 20.0097C17.0298 20.7883 15.5007 21.3319 13.4919 21.3319C9.92403 21.3319 6.89583 19.0254 5.81637 15.8374L5.65814 15.8506L1.49343 19.0092L1.43896 19.1576C3.65764 23.4768 8.21497 26.4446 13.4919 26.4446Z" fill="#34A853"/>
<path d="M5.81652 15.8374C5.53169 15.0147 5.36685 14.1332 5.36685 13.2223C5.36685 12.3114 5.53169 11.43 5.80154 10.6073L5.79399 10.432L1.57709 7.22266L1.43912 7.28697C0.524697 9.07934 0 11.0921 0 13.2223C0 15.3526 0.524697 17.3652 1.43912 19.1576L5.81652 15.8374Z" fill="#FBBC05"/>
<path d="M13.4919 5.11256C16.0254 5.11256 17.7343 6.18502 18.7088 7.08126L22.5166 3.43778C20.178 1.30754 17.1347 0 13.4919 0C8.21497 0 3.65764 2.96763 1.43896 7.28686L5.80138 10.6071C6.89584 7.41913 9.92403 5.11256 13.4919 5.11256Z" fill="#EB4335"/>
</svg>
