<svg width="146" height="175" viewBox="0 0 146 175" fill="none" xmlns="http://www.w3.org/2000/svg">
<rect y="-38" width="264" height="213" fill="white" fill-opacity="0.1"/>
<circle cx="126.5" cy="129.5" r="5.5" transform="rotate(90 126.5 129.5)" fill="#E2E2E2"/>
<circle cx="99.5" cy="129.5" r="5.5" transform="rotate(90 99.5 129.5)" fill="#E2E2E2"/>
<circle cx="71.5" cy="129.5" r="5.5" transform="rotate(90 71.5 129.5)" fill="#E2E2E2"/>
<circle cx="43.5" cy="129.5" r="5.5" transform="rotate(90 43.5 129.5)" fill="#E2E2E2"/>
<circle cx="126.5" cy="101.5" r="5.5" transform="rotate(90 126.5 101.5)" fill="#E2E2E2"/>
<circle cx="99.5" cy="101.5" r="5.5" transform="rotate(90 99.5 101.5)" fill="#E2E2E2"/>
<circle cx="71.5" cy="101.5" r="5.5" transform="rotate(90 71.5 101.5)" fill="#E2E2E2"/>
<circle cx="43.5" cy="101.5" r="5.5" transform="rotate(90 43.5 101.5)" fill="#E2E2E2"/>
<circle cx="126.5" cy="73.5" r="5.5" transform="rotate(90 126.5 73.5)" fill="#E2E2E2"/>
<circle cx="99.5" cy="73.5" r="5.5" transform="rotate(90 99.5 73.5)" fill="#E2E2E2"/>
<circle cx="71.5" cy="73.5" r="5.5" transform="rotate(90 71.5 73.5)" fill="#E2E2E2"/>
<circle cx="43.5" cy="73.5" r="5.5" transform="rotate(90 43.5 73.5)" fill="#E2E2E2"/>
<circle cx="126.5" cy="45.5" r="5.5" transform="rotate(90 126.5 45.5)" fill="#E2E2E2"/>
<circle cx="99.5" cy="45.5" r="5.5" transform="rotate(90 99.5 45.5)" fill="#E2E2E2"/>
</svg>
